HIERARCHY
ROOT hip
{
  OFFSET 0 0 0
  CHANNELS 6 Xposition Yposition Zposition Zrotation Yrotation Xrotation
  JOINT abdomen
  {
    OFFSET 0 20.6881 -0.73152
    CHANNELS 3 Zrotation Xrotation Yrotation
    JOINT chest
    {
      OFFSET 0 11.7043 -0.48768
      CHANNELS 3 Zrotation Xrotation Yrotation
      JOINT neck
      {
        OFFSET 0 22.1894 -2.19456
        CHANNELS 3 Zrotation Xrotation Yrotation
        JOINT head
        {
          OFFSET -0.24384 7.07133 1.2192
          CHANNELS 3 Zrotation Xrotation Yrotation
          JOINT leftEye
          {
            OFFSET 4.14528 8.04674 8.04672
            CHANNELS 3 Zrotation Xrotation Yrotation
            End Site
            {
              OFFSET 1 0 0
            }
          }
          JOINT rightEye
          {
            OFFSET -3.6576 8.04674 8.04672
            CHANNELS 3 Zrotation Xrotation Yrotation
            End Site
            {
              OFFSET 1 0 0
            }
          }
        }
      }
      JOINT rCollar
      {
        OFFSET -2.68224 19.2634 -4.8768
        CHANNELS 3 Zrotation Xrotation Yrotation
        JOINT rShldr
        {
          OFFSET -8.77824 -1.95073 1.46304
          CHANNELS 3 Zrotation Xrotation Yrotation
          JOINT rForeArm
          {
            OFFSET -28.1742 -1.7115 0.48768
            CHANNELS 3 Zrotation Xrotation Yrotation
            JOINT rHand
            {
              OFFSET -22.5879 0.773209 7.07136
              CHANNELS 3 Zrotation Xrotation Yrotation
              JOINT rThumb1
              {
                OFFSET -1.2192 -0.487915 3.41376
                CHANNELS 3 Zrotation Xrotation Yrotation
                JOINT rThumb2
                {
                  OFFSET -3.37035 -0.52449 3.41376
                  CHANNELS 3 Zrotation Xrotation Yrotation
                  End Site
                  {
                    OFFSET -1.78271 -1.18214 1.43049
                  }
                }
              }
              JOINT rIndex1
              {
                OFFSET -7.75947 0.938293 5.60832
                CHANNELS 3 Zrotation Xrotation Yrotation
                JOINT rIndex2
                {
                  OFFSET -2.54057 -0.884171 1.56538
                  CHANNELS 3 Zrotation Xrotation Yrotation
                  End Site
                  {
                    OFFSET -1.62519 -0.234802 1.16502
                  }
                }
              }
              JOINT rMid1
              {
                OFFSET -8.24714 1.18213 3.41376
                CHANNELS 3 Zrotation Xrotation Yrotation
                JOINT rMid2
                {
                  OFFSET -3.10165 -0.590103 1.0647
                  CHANNELS 3 Zrotation Xrotation Yrotation
                  End Site
                  {
                    OFFSET -2.48547 -0.328903 0.83742
                  }
                }
              }
              JOINT rRing1
              {
                OFFSET -8.82822 0.546677 1.51678
                CHANNELS 3 Zrotation Xrotation Yrotation
                JOINT rRing2
                {
                  OFFSET -2.60934 -0.819778 -0.0198488
                  CHANNELS 3 Zrotation Xrotation Yrotation
                  End Site
                  {
                    OFFSET -2.33842 -0.294052 0.168128
                  }
                }
              }
              JOINT rPinky1
              {
                OFFSET -8.27202 -0.0477905 -0.4584
                CHANNELS 3 Zrotation Xrotation Yrotation
                JOINT rPinky2
                {
                  OFFSET -1.82734 -0.647385 -0.700984
                  CHANNELS 3 Zrotation Xrotation Yrotation
                  End Site
                  {
                    OFFSET -1.69225 -0.51767 -0.607171
                  }
                }
              }
            }
          }
        }
      }
      JOINT lCollar
      {
        OFFSET 2.68224 19.2634 -4.8768
        CHANNELS 3 Zrotation Xrotation Yrotation
        JOINT lShldr
        {
          OFFSET 8.77824 -1.95073 1.46304
          CHANNELS 3 Zrotation Xrotation Yrotation
          JOINT lForeArm
          {
            OFFSET 28.1742 -1.7115 0.48768
            CHANNELS 3 Zrotation Xrotation Yrotation
            JOINT lHand
            {
              OFFSET 22.5879 0.773209 7.07136
              CHANNELS 3 Zrotation Xrotation Yrotation
              JOINT lThumb1
              {
                OFFSET 1.2192 -0.487915 3.41376
                CHANNELS 3 Zrotation Xrotation Yrotation
                JOINT lThumb2
                {
                  OFFSET 3.37035 -0.52449 3.41376
                  CHANNELS 3 Zrotation Xrotation Yrotation
                  End Site
                  {
                    OFFSET 1.78271 -1.18214 1.43049
                  }
                }
              }
              JOINT lIndex1
              {
                OFFSET 7.75947 0.938293 5.60832
                CHANNELS 3 Zrotation Xrotation Yrotation
                JOINT lIndex2
                {
                  OFFSET 2.54057 -0.884171 1.56538
                  CHANNELS 3 Zrotation Xrotation Yrotation
                  End Site
                  {
                    OFFSET 1.62519 -0.234802 1.16502
                  }
                }
              }
              JOINT lMid1
              {
                OFFSET 8.24714 1.18213 3.41376
                CHANNELS 3 Zrotation Xrotation Yrotation
                JOINT lMid2
                {
                  OFFSET 3.10165 -0.590103 1.0647
                  CHANNELS 3 Zrotation Xrotation Yrotation
                  End Site
                  {
                    OFFSET 2.48547 -0.328903 0.83742
                  }
                }
              }
              JOINT lRing1
              {
                OFFSET 8.82822 0.546677 1.51678
                CHANNELS 3 Zrotation Xrotation Yrotation
                JOINT lRing2
                {
                  OFFSET 2.60934 -0.819778 -0.0198488
                  CHANNELS 3 Zrotation Xrotation Yrotation
                  End Site
                  {
                    OFFSET 2.33842 -0.294052 0.168128
                  }
                }
              }
              JOINT lPinky1
              {
                OFFSET 8.27202 -0.0477905 -0.4584
                CHANNELS 3 Zrotation Xrotation Yrotation
                JOINT lPinky2
                {
                  OFFSET 1.82734 -0.647385 -0.700984
                  CHANNELS 3 Zrotation Xrotation Yrotation
                  End Site
                  {
                    OFFSET 1.69225 -0.51767 -0.607171
                  }
                }
              }
            }
          }
        }
      }
    }
  }
  JOINT rButtock
  {
    OFFSET -8.77824 4.35084 1.2192
    CHANNELS 3 Zrotation Xrotation Yrotation
    JOINT rThigh
    {
      OFFSET 0 -1.70687 -2.19456
      CHANNELS 3 Zrotation Xrotation Yrotation
      JOINT rShin
      {
        OFFSET 0 -36.8199 0.73152
        CHANNELS 3 Zrotation Xrotation Yrotation
        JOINT rFoot
        {
          OFFSET 0.73152 -45.1104 -5.12064
          CHANNELS 3 Zrotation Xrotation Yrotation
          End Site
          {
            OFFSET -1.1221 -3.69964 12.103
          }
        }
      }
    }
  }
  JOINT lButtock
  {
    OFFSET 8.77824 4.35084 1.2192
    CHANNELS 3 Zrotation Xrotation Yrotation
    JOINT lThigh
    {
      OFFSET 0 -1.70687 -2.19456
      CHANNELS 3 Zrotation Xrotation Yrotation
      JOINT lShin
      {
        OFFSET 0 -36.8199 0.73152
        CHANNELS 3 Zrotation Xrotation Yrotation
        JOINT lFoot
        {
          OFFSET -0.73152 -45.1104 -5.12064
          CHANNELS 3 Zrotation Xrotation Yrotation
          End Site
          {
            OFFSET 1.1221 -3.69964 12.103
          }
        }
      }
    }
  }
}
MOTION
Frames:	4
Frame Time:	0.03333
-0.01720065748591352 62.012783285974 0.10830993820688876 -3.259127616882324 -1.964249849319458 8.773223876953125 -2.3327574729919434 14.29423999786377 3.7940175533294678 2.6648120880126953 -9.640628814697266 1.2033061981201172 -4.9184465408325195 14.4994478225708 -3.6649210453033447 8.908845901489258 -22.162778854370117 -5.304712772369385 0.03419927880167961 0.022001158446073532 -0.026538873091340065 0.014773745089769363 -0.004360710270702839 -0.04334293678402901 0.018473949283361435 0.03800146281719208 -0.058200396597385406 46.58454132080078 40.045101165771484 17.78217124938965 -25.646297454833984 -26.343473434448242 68.59123992919922 -1.536388635635376 -10.06162166595459 -1.529987096786499 0.012506983242928982 -0.030246341601014137 0.03191601485013962 -0.002604948589578271 0.024993613362312317 -0.017771288752555847 -0.0258820541203022 0.04688132926821709 -0.02912265993654728 7.701797008514404 5.485785484313965 0.3791157901287079 0.05913623794913292 0.015355155803263187 0.0004770061350427568 2.9496402740478516 0.9182510375976562 0.07587666809558868 -0.10172247886657715 -0.012241206131875515 0.023158496245741844 10.303282737731934 0.7405893206596375 0.02189665473997593 0.03135877475142479 -0.08017414063215256 0.015607289038598537 2.2511024475097656 -0.691165566444397 -0.24147196114063263 -0.011610712856054306 -0.0007337626884691417 -0.008805125951766968 -54.8715705871582 40.361000061035156 -25.520177841186523 24.812877655029297 -23.48659324645996 -65.32584381103516 1.8304224014282227 -14.440674781799316 1.9705173969268799 -0.023967094719409943 -0.0320250540971756 -0.007773103658109903 -0.03305894136428833 0.017967965453863144 -0.0037762096617370844 -0.018586277961730957 -0.07339553534984589 -0.0181040707975626 -7.6707892417907715 5.508349418640137 -0.38718295097351074 0.01538932416588068 -0.0024216962046921253 -0.016307100653648376 -2.876845359802246 0.9818280339241028 -0.1194530501961708 -0.05526285991072655 -0.05576620250940323 -0.02868843637406826 -10.258219718933105 0.7140518426895142 -0.019160006195306778 -0.06500169634819031 -0.007007535547018051 0.017610963433980942 -2.176950454711914 -0.7367568016052246 0.2551872134208679 0.035080328583717346 0.027796009555459023 -0.01580536924302578 -24.778732299804688 -41.791717529296875 -18.741487503051758 -1.3238266706466675 65.08960723876953 2.4262287616729736 -4.58323335647583 -11.702348709106445 -9.860467910766602 0.0316176675260067 -0.048657406121492386 -0.04793886840343475 30.132644653320312 -42.78392028808594 20.988645553588867 1.3329359292984009 65.98873138427734 -2.4495112895965576 4.906868934631348 -11.545458793640137 13.01213550567627
-0.053189244387828044 62.6253692922541 0.19117341969151322 -3.270382881164551 -1.861532211303711 9.05587387084961 -2.265746593475342 14.082249641418457 3.651583194732666 2.6884663105010986 -9.52737808227539 1.116991400718689 -4.923203945159912 14.504631996154785 -3.632596015930176 8.861109733581543 -22.098304748535156 -5.237007141113281 0.06830444931983948 0.02528713271021843 -0.056532591581344604 0.018732799217104912 0.0006749272579327226 -0.04007107391953468 0.08574613183736801 0.056301988661289215 -0.07588285952806473 46.55101776123047 40.147987365722656 17.943906784057617 -25.63484001159668 -26.345970153808594 68.54925537109375 -1.5440707206726074 -10.126530647277832 -1.5671316385269165 0.00701639149338007 -0.05183512344956398 0.04137338697910309 -0.016084574162960052 0.017793985083699226 -0.029718244448304176 -0.034239932894706726 0.0860738679766655 -0.028821159154176712 7.6819257736206055 5.522800922393799 0.3340621292591095 0.09348582476377487 0.0731232613325119 0.00994888972491026 2.953944206237793 0.8762116432189941 0.04412751644849777 -0.15691794455051422 -0.02941678836941719 0.007105955854058266 10.322530746459961 0.7539448142051697 -0.007261026185005903 0.05763288959860802 -0.08452935516834259 0.06355700641870499 2.270393133163452 -0.6788331270217896 -0.25917959213256836 -0.04401133954524994 0.00827440619468689 -0.009645606391131878 -54.92789840698242 40.493385314941406 -25.413599014282227 24.774320602416992 -23.554080963134766 -65.5312271118164 1.7436811923980713 -14.315570831298828 1.913448452949524 -0.0536995530128479 -0.04284863919019699 -0.042534224689006805 -0.08518152683973312 0.035489197820425034 -0.01698758266866207 -0.025736935436725616 -0.1126931831240654 -0.014706497080624104 -7.613872528076172 5.520426273345947 -0.36836373805999756 0.017869947478175163 -0.020380167290568352 -0.007055987138301134 -2.873708724975586 0.9574083089828491 -0.1369350701570511 -0.08026286214590073 -0.09126220643520355 -0.04069477692246437 -10.244451522827148 0.7169057130813599 -0.03298034891486168 -0.10775280743837357 0.0031265546567738056 0.0027408706955611706 -2.1340761184692383 -0.7375195622444153 0.2997990548610687 0.053296320140361786 0.04504728317260742 -0.01801469177007675 -24.87021255493164 -41.874446868896484 -18.941865921020508 -1.337119221687317 65.11750030517578 2.39548397064209 -4.493716239929199 -11.480016708374023 -9.79340934753418 -0.006515049375593662 -0.10312053561210632 -0.05000991001725197 30.10740089416504 -42.7396240234375 20.93048858642578 1.2425493001937866 65.73483276367188 -2.403923511505127 4.897917747497559 -11.3114013671875 12.996819496154785
-0.09475441394279353 71.94013539550737 0.7775687454340856 -12.412726402282715 -24.452516555786133 8.737666130065918 7.749927043914795 12.04256534576416 8.758874893188477 -0.4083535969257355 -7.8498334884643555 2.735766887664795 -3.279789447784424 12.77026081085205 0.06111156940460205 6.357026100158691 -22.671112060546875 1.4730355739593506 0.03496401011943817 -0.07105767726898193 -0.24199746549129486 0.061278752982616425 -0.10274232178926468 -0.0324259027838707 0.281868577003479 0.06369273364543915 -0.08601827174425125 62.422607421875 51.02326202392578 -0.43333086371421814 -26.228391647338867 -25.43967056274414 63.72426986694336 -0.7645941376686096 6.459417819976807 0.9528935551643372 0.030461385846138 -0.05799843743443489 0.037350133061409 -0.05799897760152817 0.056932367384433746 -0.018661880865693092 -0.03495810180902481 0.08225064724683762 0.03536493331193924 7.856318950653076 5.61594295501709 0.45939478278160095 0.11290418356657028 0.10770934820175171 -0.01981620118021965 2.962217330932617 0.9279717803001404 0.022540045902132988 -0.16325736045837402 -0.1683558225631714 0.0555473193526268 10.309653282165527 0.7375546097755432 -0.008521568030118942 0.0870034322142601 -0.12267016619443893 0.10763071477413177 2.2706406116485596 -0.7810702919960022 -0.34320956468582153 -0.0031967374961823225 -0.02379467710852623 -0.0658293142914772 -61.80523681640625 30.19576644897461 -19.14600372314453 21.401973724365234 -14.099211692810059 -45.06571578979492 0.26382899284362793 -2.253821611404419 0.3265770971775055 0.037066321820020676 -0.006410198751837015 -0.15261554718017578 -0.3571712374687195 0.00023736021830700338 0.16951735317707062 -0.0981987938284874 -0.12447571754455566 -0.13504821062088013 -7.584647178649902 5.584540843963623 -0.442167729139328 -0.015085050836205482 -0.10788137465715408 -0.17171549797058105 -3.007124900817871 0.8332418203353882 -0.2967166006565094 -0.04476156830787659 0.004973653703927994 -0.09419280290603638 -10.270249366760254 0.7524279356002808 -0.10837585479021072 -0.1619987040758133 -0.07759906351566315 0.10187163949012756 -2.06433367729187 -0.6355077028274536 0.3508155345916748 0.10997647047042847 0.08757027238607407 0.054715633392333984 -3.5849337577819824 -2.736053466796875 -9.831084251403809 -0.2335755079984665 44.692604064941406 2.0677902698516846 -13.337738990783691 -17.248943328857422 -32.159061431884766 -0.1458413451910019 -0.06143626570701599 -0.05937553569674492 57.24391555786133 -58.92310333251953 49.41066360473633 1.3040697574615479 68.28080749511719 -0.9698227643966675 0.6631375551223755 0.024767445400357246 1.5835944414138794
-0.14938216020284972 71.57459733150662 0.9744602073996631 -11.302244186401367 -25.17560386657715 8.116288185119629 7.4221367835998535 11.784127235412598 10.693072319030762 -0.5332749485969543 -7.497805595397949 3.030620813369751 -3.208949089050293 13.067760467529297 -0.7261101007461548 6.813263416290283 -25.12703514099121 0.45026418566703796 -0.06163598224520683 -0.14278118312358856 -0.09156735986471176 -0.09394878149032593 -0.09010247886180878 0.04914534091949463 0.16666220128536224 0.2035422921180725 0.07429169118404388 63.440975189208984 50.198822021484375 -1.2110384702682495 -26.758031845092773 -28.017379760742188 66.8141098022461 -0.2275221347808838 8.604169845581055 0.901311457157135 -0.11820323765277863 -0.03649289160966873 0.02393217571079731 -0.14095795154571533 0.37620091438293457 -0.10401696711778641 -0.05411605164408684 0.12563787400722504 0.017496256157755852 7.789916038513184 5.5731682777404785 0.09926293790340424 0.07937172055244446 0.00862240232527256 -0.07427085191011429 3.0638296604156494 0.6615540385246277 0.05797625333070755 -0.15866126120090485 -0.07555072754621506 0.2808631658554077 10.301688194274902 0.608188271522522 0.17434565722942352 -0.10361820459365845 -0.20861852169036865 0.030274612829089165 2.2821171283721924 -0.6207564473152161 -0.1961728036403656 -0.1897994726896286 0.15127824246883392 -0.18437719345092773 -59.36119842529297 32.036746978759766 -20.284643173217773 21.710966110229492 -15.517647743225098 -43.78491973876953 -0.07060573250055313 -3.2079508304595947 0.3648647964000702 -0.06369993835687637 -0.14854127168655396 -0.05503353476524353 -0.023950636386871338 -0.04097723960876465 0.06381813436746597 -0.06906033307313919 -0.16951203346252441 -0.3752995431423187 -7.602649211883545 5.768563747406006 -0.4061599671840668 -0.1560674011707306 -0.014890980906784534 -0.14202813804149628 -3.001232385635376 0.8448857069015503 -0.2078426331281662 0.04790326952934265 -0.11823286861181259 0.031136030331254005 -10.05478572845459 0.6061543226242065 -0.2731529772281647 -0.19895681738853455 -0.06744074821472168 0.16011390089988708 -1.9143576622009277 -0.6306484341621399 0.252617210149765 0.0952659472823143 0.2033686637878418 0.10574597120285034 -4.5480828285217285 -0.9013407230377197 -8.351527214050293 -0.44938743114471436 45.641326904296875 1.9310868978500366 -14.907357215881348 -16.84187889099121 -30.14328384399414 -0.048349566757678986 -0.21327145397663116 0.09065495431423187 57.982513427734375 -55.15102005004883 52.16444778442383 1.525113821029663 67.54935455322266 -1.3879683017730713 2.064021587371826 -1.8619235754013062 3.1634674072265625
